<?xml version="1.0" ?><svg fill="none" height="24" viewBox="0 0 24 24" width="24" xmlns="http://www.w3.org/2000/svg"><path clip-rule="evenodd" d="M12 7.75C9.65279 7.75 7.75 9.65279 7.75 12C7.75 14.3472 9.65279 16.25 12 16.25C14.3472 16.25 16.25 14.3472 16.25 12C16.25 9.65279 14.3472 7.75 12 7.75ZM6.25 12C6.25 8.82436 8.82436 6.25 12 6.25C15.1756 6.25 17.75 8.82436 17.75 12C17.75 15.1756 15.1756 17.75 12 17.75C8.82436 17.75 6.25 15.1756 6.25 12Z" fill="black" fill-rule="evenodd"/><path clip-rule="evenodd" d="M12 2.25C12.4142 2.25 12.75 2.58579 12.75 3V3.07394C12.75 3.48815 12.4142 3.82394 12 3.82394C11.5858 3.82394 11.25 3.48815 11.25 3.07394V3C11.25 2.58579 11.5858 2.25 12 2.25ZM5.04107 5.0411C5.33397 4.74821 5.80884 4.74821 6.10173 5.0411L6.21864 5.15801C6.51154 5.4509 6.51154 5.92578 6.21864 6.21867C5.92575 6.51156 5.45088 6.51156 5.15798 6.21867L5.04107 6.10176C4.74818 5.80887 4.74818 5.33399 5.04107 5.0411ZM18.959 5.0411C19.2518 5.33399 19.2518 5.80887 18.959 6.10176L18.842 6.21867C18.5491 6.51156 18.0743 6.51156 17.7814 6.21867C17.4885 5.92578 17.4885 5.4509 17.7814 5.15801L17.8983 5.0411C18.1912 4.7482 18.6661 4.74821 18.959 5.0411ZM2.25 12C2.25 11.5858 2.58579 11.25 3 11.25H3.07394C3.48815 11.25 3.82394 11.5858 3.82394 12C3.82394 12.4142 3.48815 12.75 3.07394 12.75H3C2.58579 12.75 2.25 12.4142 2.25 12ZM20.1761 12C20.1761 11.5858 20.5119 11.25 20.9261 11.25H21C21.4142 11.25 21.75 11.5858 21.75 12C21.75 12.4142 21.4142 12.75 21 12.75H20.9261C20.5119 12.75 20.1761 12.4142 20.1761 12ZM17.7813 17.7815C18.0742 17.4885 18.5491 17.4885 18.842 17.7813L18.9588 17.8982C19.2518 18.1911 19.2518 18.6659 18.959 18.9588C18.6661 19.2518 18.1912 19.2518 17.8983 18.959L17.7814 18.8421C17.4885 18.5492 17.4885 18.0744 17.7813 17.7815ZM6.21859 17.7813C6.51151 18.0742 6.51157 18.5491 6.21871 18.842L6.10183 18.9589C5.80897 19.2518 5.3341 19.2519 5.04117 18.959C4.74824 18.6662 4.74819 18.1913 5.04105 17.8984L5.15793 17.7815C5.45079 17.4885 5.92566 17.4885 6.21859 17.7813ZM12 20.1761C12.4142 20.1761 12.75 20.5119 12.75 20.9261V21C12.75 21.4142 12.4142 21.75 12 21.75C11.5858 21.75 11.25 21.4142 11.25 21V20.9261C11.25 20.5119 11.5858 20.1761 12 20.1761Z" fill="black" fill-rule="evenodd"/></svg>